<?xml version="1.0" encoding="UTF-8" standalone="no"?>
<!-- Generator: Adobe Illustrator 15.0.0, SVG Export Plug-In . SVG Version: 6.00 Build 0)  -->

<svg
   xmlns:dc="http://purl.org/dc/elements/1.1/"
   xmlns:cc="http://creativecommons.org/ns#"
   xmlns:rdf="http://www.w3.org/1999/02/22-rdf-syntax-ns#"
   xmlns:svg="http://www.w3.org/2000/svg"
   xmlns="http://www.w3.org/2000/svg"
   xmlns:sodipodi="http://sodipodi.sourceforge.net/DTD/sodipodi-0.dtd"
   xmlns:inkscape="http://www.inkscape.org/namespaces/inkscape"
   version="1.1"
   id="Icons"
   x="0px"
   y="0px"
   width="44"
   height="56"
   viewBox="0 0 44 56"
   xml:space="preserve"
   inkscape:version="0.48.2 r9819"
   sodipodi:docname="blog.svg"><metadata
   id="metadata8"><rdf:RDF><cc:Work
       rdf:about=""><dc:format>image/svg+xml</dc:format><dc:type
         rdf:resource="http://purl.org/dc/dcmitype/StillImage" /></cc:Work></rdf:RDF></metadata><defs
   id="defs6" /><sodipodi:namedview
   pagecolor="#ffffff"
   bordercolor="#666666"
   borderopacity="1"
   objecttolerance="10"
   gridtolerance="10"
   guidetolerance="10"
   inkscape:pageopacity="0"
   inkscape:pageshadow="2"
   inkscape:window-width="838"
   inkscape:window-height="1010"
   id="namedview4"
   showgrid="false"
   fit-margin-top="0"
   fit-margin-left="0"
   fit-margin-right="0"
   fit-margin-bottom="12"
   inkscape:zoom="2.36"
   inkscape:cx="45.847458"
   inkscape:cy="57"
   inkscape:window-x="0"
   inkscape:window-y="19"
   inkscape:window-maximized="0"
   inkscape:current-layer="Icons" />
<path
   id="Blogger"
   d="m 29.966933,44 c 7.671645,0 13.903511,-6.249467 13.946534,-13.879067 L 44,18.887244 43.870444,18.276133 43.501822,17.507111 42.878489,17.025067 C 42.068889,16.39 37.966622,17.068089 36.862222,16.064889 36.078533,15.349156 35.956311,14.056044 35.7192,12.303378 35.278711,8.909022 35.000533,8.732044 34.468622,7.5812 32.537511,3.495067 27.297111,0.424356 23.696444,0 H 13.944578 C 6.272444,0 0,6.258756 0,13.903022 V 30.120933 C 0,37.750533 6.272444,44 13.944578,44 H 29.966933 z M 14.122044,11.358356 h 7.731778 c 1.475956,0 2.671778,1.198266 2.671778,2.654666 0,1.450534 -1.195822,2.658578 -2.671778,2.658578 h -7.731778 c -1.476444,0 -2.669333,-1.208533 -2.669333,-2.658578 0,-1.4564 1.192889,-2.654666 2.669333,-2.654666 z M 11.452711,29.9156 c 0,-1.455911 1.192889,-2.645378 2.669333,-2.645378 h 15.710445 c 1.466667,0 2.6576,1.189467 2.6576,2.645378 0,1.436844 -1.190933,2.644889 -2.6576,2.644889 H 14.122044 C 12.6456,32.560978 11.452711,31.352444 11.452711,29.9156 z"
   inkscape:connector-curvature="0" />
</svg>