<?xml version="1.0" encoding="UTF-8" standalone="no"?>
<!-- Created with Inkscape (http://www.inkscape.org/) -->

<svg
   xmlns:dc="http://purl.org/dc/elements/1.1/"
   xmlns:cc="http://creativecommons.org/ns#"
   xmlns:rdf="http://www.w3.org/1999/02/22-rdf-syntax-ns#"
   xmlns:svg="http://www.w3.org/2000/svg"
   xmlns="http://www.w3.org/2000/svg"
   xmlns:sodipodi="http://sodipodi.sourceforge.net/DTD/sodipodi-0.dtd"
   xmlns:inkscape="http://www.inkscape.org/namespaces/inkscape"
   version="1.1"
   width="44"
   height="56"
   viewBox="0 0 44 56"
   id="Icons"
   xml:space="preserve"
   inkscape:version="0.48.2 r9819"
   sodipodi:docname="feed.svg"><sodipodi:namedview
   pagecolor="#ffffff"
   bordercolor="#666666"
   borderopacity="1"
   objecttolerance="10"
   gridtolerance="10"
   guidetolerance="10"
   inkscape:pageopacity="0"
   inkscape:pageshadow="2"
   inkscape:window-width="1678"
   inkscape:window-height="504"
   id="namedview6"
   showgrid="false"
   fit-margin-top="0"
   fit-margin-left="0"
   fit-margin-right="0"
   fit-margin-bottom="12"
   inkscape:zoom="4.2142857"
   inkscape:cx="28"
   inkscape:cy="30.508475"
   inkscape:window-x="0"
   inkscape:window-y="19"
   inkscape:window-maximized="0"
   inkscape:current-layer="Icons" /><metadata
   id="metadata3093"><rdf:RDF><cc:Work
       rdf:about=""><dc:format>image/svg+xml</dc:format><dc:type
         rdf:resource="http://purl.org/dc/dcmitype/StillImage" /><dc:title /></cc:Work></rdf:RDF></metadata><defs
   id="defs3091" />
<path
   d="m 9.9733333,34.01151 c 1.0657787,1.064313 1.7140447,2.50849 1.7179567,4.116446 -0.0039,1.605022 -0.652178,3.049199 -1.7140456,4.109599 l -0.00391,0.002 C 8.909513,43.29849 7.4565347,43.945777 5.8407571,43.945777 4.2269347,43.945777 2.7773793,43.296535 1.714046,42.237601 0.65315556,41.177644 0,39.734932 0,38.127956 0,36.52 0.65315556,35.0724 1.7140444,34.010044 v 0.0016 c 1.0638223,-1.059911 2.5133783,-1.712089 4.1267113,-1.712089 1.6157772,0 3.0672886,0.653644 4.1325776,1.712089 z m 0,-0.0016 v 0.0016 c 0.00196,0 0.00196,0 0.00196,0 l -0.00196,-0.0016 z m -8.2592889,8.229467 c 0,0 0,0 0,-0.002 -0.00195,0 -0.00195,0 -0.00195,0 l 0.00195,0.002 z M 0.00488886,14.961956 V 23.36351 C 5.489733,23.367015 10.677333,25.521468 14.5596,29.4096 c 3.88129,3.87591 6.027023,9.071332 6.035822,14.575244 h 0.0028 V 44 h 8.436287 C 29.027778,35.99689 25.77471,28.747644 20.515244,23.484268 15.2548,18.221867 8.0084886,14.966845 0.00488886,14.961956 z M 0.02004443,0 V 8.3976447 C 19.626445,8.4118224 35.56471,24.375023 35.57791,44 H 44 C 43.994132,31.870668 39.064177,20.881422 31.096756,12.908622 23.12689,4.9382671 12.144978,0.0053775 0.02004443,0 z"
   id="Feed"
   inkscape:connector-curvature="0" />
</svg>
