<?xml version="1.0" encoding="UTF-8" standalone="no"?>
<!-- Created with Inkscape (http://www.inkscape.org/) -->

<svg
   xmlns:dc="http://purl.org/dc/elements/1.1/"
   xmlns:cc="http://creativecommons.org/ns#"
   xmlns:rdf="http://www.w3.org/1999/02/22-rdf-syntax-ns#"
   xmlns:svg="http://www.w3.org/2000/svg"
   xmlns="http://www.w3.org/2000/svg"
   version="1.1"
   width="249.47301"
   height="56.217999"
   viewBox="0 0 249.47301 56.217999"
   id="Layer_1"
   xml:space="preserve"><metadata
   id="metadata29"><rdf:RDF><cc:Work
       rdf:about=""><dc:format>image/svg+xml</dc:format><dc:type
         rdf:resource="http://purl.org/dc/dcmitype/StillImage" /><dc:title></dc:title></cc:Work></rdf:RDF></metadata><defs
   id="defs27" />
<g
   transform="translate(-318.35,-267.8)"
   id="g3">
	<path
   d="m 318.71,304.398 c -0.18,-1.199 -0.36,-1.859 -0.36,-2.399 0,-0.6 0.48,-1.14 1.2,-1.14 0.48,0 0.9,0.48 1.2,1.14 l 2.46,5.16 c 0.9,1.739 3.48,2.159 5.22,2.159 8.52,0 10.08,-6.659 10.08,-8.52 0,-10.319 -19.199,-9.479 -19.199,-21.839 0,-6.899 4.68,-11.159 13.319,-11.159 3.54,0 6.96,1.2 7.68,1.56 l 0.3,4.8 c 0.06,0.48 0.12,1.08 0.12,1.86 0,0.84 -0.72,1.26 -1.14,1.26 -0.66,0 -0.9,-0.24 -1.14,-0.9 l -1.26,-3.54 c -0.3,-0.96 -1.38,-2.4 -5.52,-2.4 -3.6,0 -8.28,2.04 -8.28,7.2 0,10.08 18.839,9.6 18.839,21.779 0,4.08 -2.94,12.54 -14.339,12.54 -2.82,0 -5.64,-0.42 -8.16,-1.62 l -1.02,-5.941 z"
   id="path5" />
	<path
   d="m 351.049,272.42 c 0,-0.42 -0.24,-1.02 -0.96,-1.26 l -2.4,-0.72 c -0.9,-0.24 -1.14,-0.48 -1.14,-0.96 0,-0.6 0.42,-0.96 1.32,-0.96 h 10.44 c 0.9,0 1.32,0.36 1.32,0.96 0,0.48 -0.24,0.72 -1.14,0.96 l -2.4,0.72 c -0.72,0.24 -0.96,0.84 -0.96,1.26 v 32.519 c 0,9.659 -6.12,13.439 -10.739,13.439 -2.58,0 -2.88,-1.32 -2.88,-1.92 0,-1.62 1.5,-1.74 2.22,-1.74 0.54,0 1.26,0.3 2.52,0.3 2.34,0 4.8,-1.26 4.8,-4.68 V 272.42 z"
   id="path7" />
	<path
   d="m 368.988,272.42 c 0,-0.42 -0.24,-1.02 -0.96,-1.26 l -2.4,-0.72 c -0.9,-0.24 -1.14,-0.48 -1.14,-0.96 0,-0.6 0.42,-0.96 1.32,-0.96 h 10.439 c 0.9,0 1.32,0.36 1.32,0.96 0,0.48 -0.24,0.72 -1.14,0.96 l -2.4,0.72 c -0.72,0.24 -0.96,0.84 -0.96,1.26 v 16.38 h 0.12 l 12.659,-15.779 c 0.6,-0.72 0.66,-1.02 0.66,-1.32 0,-0.36 -0.18,-0.54 -1.08,-0.9 l -1.92,-0.72 c -0.18,-0.06 -0.42,-0.48 -0.42,-0.84 0,-0.3 0.48,-0.72 1.08,-0.72 h 9.419 c 0.66,0 0.9,0.12 0.9,0.72 0,0.48 -0.18,0.78 -0.36,0.84 l -2.58,0.96 c -0.96,0.36 -1.32,0.6 -1.92,1.38 l -12.359,15.299 14.64,19.56 c 0.84,1.08 1.14,1.26 2.52,1.68 l 1.2,0.359 c 1.26,0.36 1.44,0.601 1.44,0.961 0,0.539 -0.18,0.959 -0.96,0.959 h -11.22 c -0.42,0 -0.72,-0.42 -0.72,-0.899 0,-0.42 0.24,-0.66 1.32,-1.021 l 0.78,-0.239 c 0.96,-0.3 1.38,-0.48 1.38,-0.72 0,-0.301 -0.78,-1.26 -1.2,-1.801 L 373.187,288.98 h -0.12 v 18.359 c 0,0.42 0.24,1.021 0.96,1.26 l 2.4,0.72 c 0.9,0.24 1.14,0.48 1.14,0.961 0,0.6 -0.42,0.959 -1.32,0.959 h -10.439 c -0.9,0 -1.32,-0.359 -1.32,-0.959 0,-0.48 0.24,-0.721 1.14,-0.961 l 2.4,-0.72 c 0.72,-0.239 0.96,-0.84 0.96,-1.26 V 272.42 z"
   id="path9" />
	<path
   d="m 403.068,285.86 c 0,-0.78 -0.24,-1.08 -0.9,-1.08 h -3.06 c -0.36,0 -0.54,-0.06 -0.54,-0.6 0,-0.3 0.12,-0.42 0.9,-0.84 l 5.1,-2.58 c 0.66,-0.36 0.9,-0.42 1.26,-0.42 0.42,0 0.6,0.18 0.6,0.78 v 25.799 c 0,1.14 0.301,1.44 1.02,1.68 l 3,1.08 c 0.48,0.181 0.601,0.479 0.601,0.84 0,0.48 -0.479,0.72 -1.2,0.72 H 399.65 c -0.72,0 -1.2,-0.239 -1.2,-0.72 0,-0.36 0.12,-0.659 0.6,-0.84 l 3,-1.08 c 0.719,-0.239 1.02,-0.54 1.02,-1.68 V 285.86 z m 1.44,-15.719 c 1.74,0 3.12,1.38 3.12,3.12 0,1.74 -1.38,3.12 -3.12,3.12 -1.74,0 -3.119,-1.38 -3.119,-3.12 0,-1.74 1.379,-3.12 3.119,-3.12 z"
   id="path11" />
	<path
   d="m 417.467,285.14 c 0,-0.78 -0.239,-1.08 -0.899,-1.08 h -3.06 c -0.301,0 -0.54,-0.18 -0.54,-0.54 0,-0.36 0.181,-0.48 0.899,-0.9 l 5.28,-2.88 c 0.479,-0.24 0.78,-0.42 1.14,-0.42 0.36,0 0.541,0.3 0.541,0.78 v 5.52 h 0.119 c 1.439,-2.22 3.9,-5.28 8.16,-5.28 4.199,0 8.52,2.46 8.52,8.04 v 18.539 c 0,1.14 0.3,1.44 1.02,1.68 l 3,1.08 c 0.48,0.181 0.6,0.479 0.6,0.84 0,0.48 -0.479,0.72 -1.199,0.72 h -10.199 c -0.721,0 -1.201,-0.239 -1.201,-0.72 0,-0.36 0.121,-0.659 0.601,-0.84 l 3,-1.08 c 0.72,-0.239 1.021,-0.54 1.021,-1.68 V 289.1 c 0,-4.08 -3.601,-5.4 -5.461,-5.4 -3.06,0 -7.979,2.46 -7.979,8.7 v 14.52 c 0,1.14 0.299,1.44 1.02,1.68 l 3,1.08 c 0.479,0.181 0.6,0.479 0.6,0.84 0,0.48 -0.48,0.72 -1.2,0.72 h -10.199 c -0.72,0 -1.2,-0.239 -1.2,-0.72 0,-0.36 0.12,-0.659 0.6,-0.84 l 3,-1.08 c 0.721,-0.239 1.02,-0.54 1.02,-1.68 v -21.78 z"
   id="path13" />
	<path
   d="m 463.727,284.84 c 1.5,2.1 2.039,4.32 2.039,7.02 0,3.6 -1.799,10.38 -9.059,10.38 -0.9,0 -1.86,-0.06 -2.34,-0.181 -1.74,1.08 -2.881,2.16 -2.881,3.42 0,0.721 0.66,1.32 1.74,1.32 0.84,0 4.08,-0.24 6.119,-0.24 11.04,0 11.28,6.42 11.28,8.04 0,3.84 -3.12,9.419 -13.079,9.419 -9.301,0 -12.12,-5.398 -12.12,-8.879 0,-3.42 1.86,-5.46 4.44,-6.6 -0.84,-0.54 -2.101,-1.26 -2.101,-2.4 0,-1.26 0.96,-2.459 4.319,-5.1 -3.539,-2.28 -5.279,-6.359 -5.279,-10.439 0,-5.22 3,-10.26 9.359,-10.26 1.74,0 3.6,0.6 5.221,1.86 h 8.219 v 2.64 h -5.877 z m -5.581,36.898 c 4.199,0 9.479,-1.5 9.479,-6.66 0,-4.439 -5.94,-5.159 -9.18,-5.159 -3.659,0 -9.3,0.36 -9.3,5.399 0.001,4.981 4.921,6.42 9.001,6.42 z m -1.32,-21.779 c 3,0 5.221,-3.06 5.221,-7.259 0,-6.78 -3.36,-9.72 -6.301,-9.72 -1.799,0 -5.219,1.62 -5.219,7.14 0,3.659 1.86,9.839 6.299,9.839 z"
   id="path15" />
	<path
   d="m 471.706,305.479 c -0.06,-0.779 -0.181,-1.439 -0.181,-1.979 0,-0.601 0.24,-1.44 1.261,-1.44 0.78,0 0.96,0.42 1.44,1.681 l 1.619,4.14 c 0.42,0.96 2.16,1.561 3.24,1.561 3.42,0 6.359,-2.641 6.359,-6.061 0,-6.54 -13.5,-6.419 -13.5,-15.419 0,-5.34 4.801,-7.62 9.541,-7.62 1.559,0 4.379,0.54 5.76,1.2 l 0.299,3.66 c 0.061,0.72 0.181,1.44 0.181,1.98 0,0.42 -0.36,0.96 -1.2,0.96 -0.48,0 -1.02,-0.54 -1.32,-1.26 l -1.02,-2.58 c -0.359,-0.96 -1.199,-1.68 -3.48,-1.68 -2.52,0 -5.039,1.86 -5.039,5.16 0,6 13.5,6.6 13.5,15 0,3.779 -3.181,8.939 -9.48,8.939 -2.58,0 -5.279,-0.12 -7.5,-1.38 l -0.48,-4.862 z"
   id="path17" />
	<path
   d="m 496.725,283.82 h -2.399 c -1.38,0 -1.86,-0.42 -1.8,-1.14 0.061,-0.479 0.24,-0.9 1.199,-1.26 l 2.16,-0.78 c 0.961,-0.36 1.561,-1.14 1.801,-3.84 l 0.18,-1.86 c 0.06,-1.02 0.66,-1.74 1.199,-1.74 0.42,0 1.021,0.36 1.021,1.44 v 6.18 h 7.439 l -0.84,3 h -6.6 v 20.879 c 0,3.119 1.62,4.02 3.84,4.02 1.56,0 3.6,-1.08 4.319,-1.08 0.721,0 0.961,0.6 0.961,0.84 0,1.381 -3.121,3.24 -6.78,3.24 -2.46,0 -5.7,-1.62 -5.7,-5.699 v -22.2 z"
   id="path19" />
	<path
   d="m 523.363,280.34 c 6.121,0 11.881,6.18 11.881,15.6 0,11.22 -6.84,15.779 -11.881,15.779 -8.159,0 -12.419,-7.199 -12.419,-15.899 0,-9 5.46,-15.48 12.419,-15.48 z m -0.239,28.739 c 4.079,0 8.04,-4.2 8.04,-12.96 0,-6.839 -2.701,-13.139 -7.98,-13.139 -4.199,0 -8.159,4.26 -8.159,13.919 -10e-4,4.98 2.039,12.18 8.099,12.18 z"
   id="path21" />
	<path
   d="m 543.043,285.14 c 0,-0.78 -0.24,-1.08 -0.898,-1.08 h -3.061 c -0.301,0 -0.541,-0.18 -0.541,-0.54 0,-0.36 0.182,-0.48 0.9,-0.9 l 5.279,-2.88 c 0.48,-0.24 0.781,-0.42 1.141,-0.42 0.36,0 0.541,0.3 0.541,0.78 v 5.52 h 0.119 c 1.439,-2.22 3.9,-5.28 8.16,-5.28 4.199,0 8.52,2.46 8.52,8.04 v 18.539 c 0,1.14 0.299,1.44 1.02,1.68 l 3,1.08 c 0.48,0.181 0.6,0.479 0.6,0.84 0,0.48 -0.48,0.72 -1.199,0.72 h -10.199 c -0.721,0 -1.201,-0.239 -1.201,-0.72 0,-0.36 0.121,-0.659 0.6,-0.84 l 3,-1.08 c 0.721,-0.239 1.021,-0.54 1.021,-1.68 V 289.1 c 0,-4.08 -3.602,-5.4 -5.461,-5.4 -3.059,0 -7.979,2.46 -7.979,8.7 v 14.52 c 0,1.14 0.299,1.44 1.02,1.68 l 3,1.08 c 0.48,0.181 0.6,0.479 0.6,0.84 0,0.48 -0.48,0.72 -1.199,0.72 h -10.201 c -0.719,0 -1.199,-0.239 -1.199,-0.72 0,-0.36 0.119,-0.659 0.6,-0.84 l 3,-1.08 c 0.721,-0.239 1.02,-0.54 1.02,-1.68 v -21.78 z"
   id="path23" />
</g>
</svg>
