<?xml version="1.0" encoding="UTF-8" standalone="no"?>
<!-- Generator: Adobe Illustrator 15.0.0, SVG Export Plug-In . SVG Version: 6.00 Build 0)  -->

<svg
   xmlns:dc="http://purl.org/dc/elements/1.1/"
   xmlns:cc="http://creativecommons.org/ns#"
   xmlns:rdf="http://www.w3.org/1999/02/22-rdf-syntax-ns#"
   xmlns:svg="http://www.w3.org/2000/svg"
   xmlns="http://www.w3.org/2000/svg"
   xmlns:sodipodi="http://sodipodi.sourceforge.net/DTD/sodipodi-0.dtd"
   xmlns:inkscape="http://www.inkscape.org/namespaces/inkscape"
   version="1.1"
   id="Icons"
   x="0px"
   y="0px"
   width="50"
   height="56"
   viewBox="0 0 50 56"
   xml:space="preserve"
   inkscape:version="0.48.2 r9819"
   sodipodi:docname="vcard.svg"><metadata
   id="metadata8"><rdf:RDF><cc:Work
       rdf:about=""><dc:format>image/svg+xml</dc:format><dc:type
         rdf:resource="http://purl.org/dc/dcmitype/StillImage" /></cc:Work></rdf:RDF></metadata><defs
   id="defs6" /><sodipodi:namedview
   pagecolor="#ffffff"
   bordercolor="#666666"
   borderopacity="1"
   objecttolerance="10"
   gridtolerance="10"
   guidetolerance="10"
   inkscape:pageopacity="0"
   inkscape:pageshadow="2"
   inkscape:window-width="838"
   inkscape:window-height="504"
   id="namedview4"
   showgrid="false"
   fit-margin-top="0"
   fit-margin-left="0"
   fit-margin-right="0"
   fit-margin-bottom="12"
   inkscape:zoom="2.36"
   inkscape:cx="45.847458"
   inkscape:cy="51.999998"
   inkscape:window-x="840"
   inkscape:window-y="19"
   inkscape:window-maximized="0"
   inkscape:current-layer="Icons" />
<path
   id="vCard"
   d="m 47.661427,36.814905 c -0.0088,-2.108727 -1.487769,-2.159328 -3.254943,-2.866087 l -8.250108,-3.304444 c -0.143552,-0.0561 -0.284904,-0.116051 -0.424606,-0.178202 v -0.0033 c -1.466869,-0.663859 -2.761586,-1.587871 -3.236242,-2.23743 l -0.0187,-0.0209 -0.0055,-0.01045 c -0.02695,-0.0418 -0.0561,-0.0847 -0.0814,-0.125952 l -0.0187,-0.0341 -0.0033,-0.0088 -0.01705,-0.0209 v -0.0011 C 32.130873,27.672685 31.90867,27.524733 31.721117,27.588534 l -0.01155,0.0049 -0.0055,0.0016 -0.0017,0.0011 -0.01045,0.0044 -0.0071,0.0016 -0.01045,0.0093 c -0.223303,0.116052 -0.178753,-0.011 -0.269504,-0.256853 -0.223303,-0.602808 -0.591807,-1.751223 -0.647358,-1.920075 -0.0858,-0.314604 -0.316254,0.496656 -0.263454,-0.378405 l 0.09405,-1.583471 c 0.151802,-0.163352 0.274453,-0.296454 0.358054,-0.388305 0.537357,-0.614908 0.574758,-2.23853 0.844261,-2.634535 0.269504,-0.396555 0.809061,-0.481806 1.347518,-2.324881 0.539007,-1.844724 1.196266,-4.478708 0.503257,-4.521609 -0.170503,-0.01155 -0.363005,0.099 -0.562658,0.274454 0.121552,-0.677059 0.378405,-2.21323 0.436706,-3.346794 0.077,-1.4932697 -0.170502,-5.3229707 -1.019713,-6.7260387 -0.530757,-0.877262 -1.602171,-1.746273 -2.669735,-2.423882 -0.639659,-0.40810501 -1.277667,-0.74526001 -1.799624,-0.97406301 -1.554871,-0.689709 -6.457085,-0.372905 -8.117007,0 -1.891475,0.423506 -3.216992,1.61042101 -4.064003,3.01404001 -0.845912,1.405268 -1.221567,5.617224 -1.147866,7.1104937 0.03575,0.669908 0.436706,1.800173 0.538458,2.489882 0.05775,0.359705 0.111101,0.362455 0.156202,0.619858 -0.07095,-0.02695 -0.139152,-0.0418 -0.202953,-0.0374 -0.693559,0.0429 -0.03795,2.676885 0.500506,4.521609 0.540108,1.843075 1.076915,1.928326 1.347518,2.324881 0.269504,0.396005 0.307454,2.019627 0.848111,2.634535 0.08525,0.09735 0.215053,0.239253 0.376205,0.410855 l 0.102852,1.291417 0.181502,0.71886 c -0.08305,-0.206803 -0.246953,-0.339905 -0.323954,-0.0704 -0.232103,0.705109 -0.464206,1.410768 -0.696309,2.115878 -0.0242,-0.03465 -0.06215,-0.0572 -0.105602,-0.05995 -0.224953,-0.198553 -0.526907,-0.02585 -0.80191,0.432305 -0.407556,0.679259 -1.756723,1.656072 -3.321494,2.362832 l -0.022,0.0847 -0.022,0.0836 -0.0083,0.03355 c -0.123751,0.055 -0.246953,0.107252 -0.372905,0.156752 L 4.6206107,33.949918 C 2.8556375,34.656677 1.375018,34.707278 1.3656679,36.816005 L -5.5953116e-8,44.0002 H 49.500651 l -1.839224,-7.185295 z"
   inkscape:connector-curvature="0" />
</svg>
